<svg aria-hidden="true" style="position: absolute; width: 0; height: 0; overflow: hidden;" version="1.1" xmlns="http://www.w3.org/2000/svg" xmlns:xlink="http://www.w3.org/1999/xlink">
    <defs>
        <symbol id="icon-heart" viewBox="0 0 32 32">
            <path fill="#ff6b08" style="fill: var(--color1, #ff6b08)" d="M16 30.144l-2.24-2.218c-8.32-7.287-13.76-12.198-13.76-18.218 0-4.911 3.84-8.713 8.8-8.713 2.72 0 5.44 1.267 7.2 3.327 1.76-2.059 4.48-3.327 7.2-3.327 4.96 0 8.8 3.802 8.8 8.713 0 6.020-5.44 10.931-13.76 18.218l-2.24 2.218z"></path>
        </symbol>
        <symbol id="icon-search" viewBox="0 0 32 32">
            <path fill="none" stroke="#fff" style="stroke: var(--color1, #fff)" stroke-linejoin="round" stroke-linecap="round" stroke-miterlimit="4" stroke-width="2.6667" d="M14.667 25.333c5.891 0 10.667-4.776 10.667-10.667s-4.776-10.667-10.667-10.667v0c-5.891 0-10.667 4.776-10.667 10.667s4.776 10.667 10.667 10.667v0zM28 28l-5.8-5.8"></path>
        </symbol>
        <symbol id="icon-main-logo" viewBox="0 0 32 32">
            <path   stroke-linejoin="round" stroke-linecap="round" stroke-miterlimit="4" stroke-width="2.6667" d="M26.427 2.667h-20.853c-1.605 0-2.907 1.301-2.907 2.907v0 20.853c0 1.605 1.301 2.907 2.907 2.907v0h20.853c1.605 0 2.907-1.301 2.907-2.907v0-20.853c0-1.605-1.301-2.907-2.907-2.907v0zM9.333 2.667v26.667M22.667 2.667v26.667M2.667 16h26.667M2.667 9.333h6.667M2.667 22.667h6.667M22.667 22.667h6.667M22.667 9.333h6.667"></path>
        </symbol>
        <symbol id="icon-github-logo" viewBox="0 0 32 32">
            <path d="M16 0c-8.84 0-16 7.16-16 16 0 7.080 4.58 13.060 10.94 15.18 0.8 0.14 1.1-0.34 1.1-0.76 0-0.38-0.020-1.64-0.020-2.98-4.020 0.74-5.060-0.98-5.38-1.88-0.18-0.46-0.96-1.88-1.64-2.26-0.56-0.3-1.36-1.040-0.020-1.060 1.26-0.020 2.16 1.16 2.46 1.64 1.44 2.42 3.74 1.74 4.66 1.32 0.14-1.040 0.56-1.74 1.020-2.14-3.56-0.4-7.28-1.78-7.28-7.9 0-1.74 0.62-3.18 1.64-4.3-0.16-0.4-0.72-2.040 0.16-4.24 0 0 1.34-0.42 4.4 1.64 1.28-0.36 2.64-0.54 4-0.54s2.72 0.18 4 0.54c3.060-2.080 4.4-1.64 4.4-1.64 0.88 2.2 0.32 3.84 0.16 4.24 1.020 1.12 1.64 2.54 1.64 4.3 0 6.14-3.74 7.5-7.3 7.9 0.58 0.5 1.080 1.46 1.080 2.96 0 2.14-0.020 3.86-0.020 4.4 0 0.42 0.3 0.92 1.1 0.76 6.32-2.12 10.9-8.12 10.9-15.18 0-8.84-7.16-16-16-16z"></path>
        </symbol>
        <symbol id="icon-close" viewBox="0 0 32 32">
            <path d="M32 3.223l-3.223-3.223-12.777 12.777-12.777-12.777-3.223 3.223 12.777 12.777-12.777 12.777 3.223 3.223 12.777-12.777 12.777 12.777 3.223-3.223-12.777-12.777 12.777-12.777z"></path>
        </symbol>
        <symbol id="icon-arrow-right" viewBox="0 0 32 32">
            <path stroke-linejoin="round" stroke-linecap="round" stroke-miterlimit="4" stroke-width="2.6667" d="M6.667 16h18.667"></path>
            <path stroke-linejoin="round" stroke-linecap="round" stroke-miterlimit="4" stroke-width="2.6667" d="M16 25.333l9.333-9.333-9.333-9.333"></path>
        </symbol>
        <symbol id="icon-arrow-left" viewBox="0 0 32 32">
            <path stroke-linejoin="round" stroke-linecap="round" stroke-miterlimit="4" stroke-width="2.6667" d="M25.333 16h-18.667"></path>
            <path stroke-linejoin="round" stroke-linecap="round" stroke-miterlimit="4" stroke-width="2.6667" d="M16 25.333l-9.333-9.333 9.333-9.333"></path>
        </symbol>
        <symbol id="more-icon" viewBox="0 0 107 32">
            <path d="M17.25 5.333c2.833 0 5.021 0.813 6.562 2.438 1.542 1.583 2.313 3.583 2.313 6 0 2.375-0.771 4.354-2.313 5.938-1.542 1.542-3.729 2.312-6.562 2.312-2.708 0-4.854-0.771-6.438-2.312s-2.375-3.521-2.375-5.938c0-2.417 0.771-4.417 2.312-6 1.542-1.625 3.708-2.438 6.5-2.438zM53 5.333c2.833 0 5.021 0.813 6.562 2.438 1.542 1.583 2.313 3.583 2.313 6 0 2.375-0.771 4.354-2.313 5.938-1.542 1.542-3.729 2.312-6.562 2.312-2.708 0-4.854-0.771-6.438-2.312s-2.375-3.521-2.375-5.938c0-2.417 0.771-4.417 2.313-6 1.542-1.625 3.708-2.438 6.5-2.438zM88.75 5.333c2.833 0 5.021 0.813 6.563 2.438 1.542 1.583 2.312 3.583 2.312 6 0 2.375-0.771 4.354-2.312 5.938-1.542 1.542-3.729 2.312-6.563 2.312-2.708 0-4.854-0.771-6.437-2.312s-2.375-3.521-2.375-5.938c0-2.417 0.771-4.417 2.313-6 1.542-1.625 3.708-2.438 6.5-2.438z"></path>
        </symbol>
        <symbol id="icon-youtube" viewBox="0 0 32 32">
            <path d="M31.681 9.6c0 0-0.313-2.206-1.275-3.175-1.219-1.275-2.581-1.281-3.206-1.356-4.475-0.325-11.194-0.325-11.194-0.325h-0.012c0 0-6.719 0-11.194 0.325-0.625 0.075-1.987 0.081-3.206 1.356-0.963 0.969-1.269 3.175-1.269 3.175s-0.319 2.588-0.319 5.181v2.425c0 2.587 0.319 5.181 0.319 5.181s0.313 2.206 1.269 3.175c1.219 1.275 2.819 1.231 3.531 1.369 2.563 0.244 10.881 0.319 10.881 0.319s6.725-0.012 11.2-0.331c0.625-0.075 1.988-0.081 3.206-1.356 0.962-0.969 1.275-3.175 1.275-3.175s0.319-2.587 0.319-5.181v-2.425c-0.006-2.588-0.325-5.181-0.325-5.181zM12.694 20.15v-8.994l8.644 4.513-8.644 4.481z"></path>
        </symbol>
    </defs>
</svg>